<svg id="Capa_1" data-name="Capa 1" xmlns="http://www.w3.org/2000/svg" xmlns:xlink="http://www.w3.org/1999/xlink" viewBox="0 0 1921 1427"><defs><style>.cls-1{fill:url(#Degradado_sin_nombre_8);}.cls-2{opacity:0.496;}.cls-3{fill:#5fdefb;}.cls-4{opacity:0.114;}.cls-5{opacity:0.31;}.cls-6{opacity:0.22;}</style><radialGradient id="Degradado_sin_nombre_8" cx="2030.046" cy="7261.554" r="0.937" gradientTransform="matrix(1427.081, 22.835, 21.128, -1362.961, -3049075.432, 9851677.335)" gradientUnits="userSpaceOnUse"><stop offset="0" stop-color="#2db0fa"/><stop offset="0.094" stop-color="#2db0fa"/><stop offset="0.562" stop-color="#3559bb"/><stop offset="1" stop-color="#0f2162"/></radialGradient></defs><title>fondon eyepro</title><path id="Trazado_182" data-name="Trazado 182" class="cls-1" d="M.3-.184H1921V1427H.3Z"/><g id="Grupo_91" data-name="Grupo 91" class="cls-2"><g id="Grupo_85" data-name="Grupo 85"><circle id="Elipse_10" data-name="Elipse 10" class="cls-3" cx="161.793" cy="473.436" r="10.129"/><circle id="Elipse_11" data-name="Elipse 11" class="cls-3" cx="741.305" cy="834.315" r="5.065"/><circle id="Elipse_12" data-name="Elipse 12" class="cls-3" cx="703.095" cy="827.827" r="5.065"/><circle id="Elipse_13" data-name="Elipse 13" class="cls-3" cx="1037.123" cy="185.527" r="10.129"/><circle id="Elipse_14" data-name="Elipse 14" class="cls-3" cx="1154.051" cy="163.938" r="5.065"/><circle id="Elipse_15" data-name="Elipse 15" class="cls-3" cx="486.681" cy="594.975" r="5.065"/><circle id="Elipse_16" data-name="Elipse 16" class="cls-3" cx="999.597" cy="67.285" r="5.065"/><g id="Grupo_75" data-name="Grupo 75" class="cls-4"><g id="Grupo_65" data-name="Grupo 65"><path id="Trazado_185" data-name="Trazado 185" class="cls-3" d="M267.1,271.692c-55.438,49.932-141.15,45.44-191.068-10.017S30.607,120.482,86.043,70.551s141.15-45.439,191.066,10.016S322.535,221.761,267.1,271.692ZM89.55,74.447c-53.292,48-57.61,130.416-9.628,183.721A130.068,130.068,0,1,0,89.551,74.446Z"/></g><g id="Grupo_66" data-name="Grupo 66"><path id="Trazado_186" data-name="Trazado 186" class="cls-3" d="M258.866,262.548a123.01,123.01,0,1,1,9.1-173.748A122.963,122.963,0,0,1,258.866,262.548ZM97.779,83.589a117.77,117.77,0,1,0,166.3,8.72v0A117.857,117.857,0,0,0,97.779,83.589Z"/></g><g id="Grupo_67" data-name="Grupo 67"><path id="Trazado_187" data-name="Trazado 187" class="cls-3" d="M250.636,253.405a110.707,110.707,0,1,1,8.192-156.373A110.666,110.666,0,0,1,250.636,253.405ZM106.01,92.733a105.467,105.467,0,1,0,148.925,7.806h0A105.55,105.55,0,0,0,106.01,92.733Z"/></g><g id="Grupo_68" data-name="Grupo 68"><path id="Trazado_188" data-name="Trazado 188" class="cls-3" d="M242.405,244.261a98.406,98.406,0,1,1,7.283-139h0A98.551,98.551,0,0,1,242.405,244.261ZM114.24,101.876a93.166,93.166,0,1,0,131.555,6.9h0a93.236,93.236,0,0,0-131.554-6.9Z"/></g><g id="Grupo_69" data-name="Grupo 69"><path id="Trazado_189" data-name="Trazado 189" class="cls-3" d="M234.175,235.118A86.1,86.1,0,1,1,240.543,113.5,86.067,86.067,0,0,1,234.175,235.118Zm-111.7-124.1a80.863,80.863,0,1,0,114.182,5.986h0A80.924,80.924,0,0,0,122.471,111.02Z"/></g><g id="Grupo_70" data-name="Grupo 70"><path id="Trazado_190" data-name="Trazado 190" class="cls-3" d="M225.945,225.974a73.8,73.8,0,1,1,5.461-104.239A73.771,73.771,0,0,1,225.945,225.974ZM130.7,120.164a68.561,68.561,0,1,0,96.81,5.075h0a68.611,68.611,0,0,0-96.807-5.073Z"/></g><g id="Grupo_71" data-name="Grupo 71"><path id="Trazado_191" data-name="Trazado 191" class="cls-3" d="M217.715,216.831a61.5,61.5,0,1,1,4.551-86.866h0A61.593,61.593,0,0,1,217.715,216.831Zm-78.784-87.524a56.26,56.26,0,1,0,79.441,4.166v0a56.3,56.3,0,0,0-79.438-4.163Z"/></g><g id="Grupo_72" data-name="Grupo 72"><path id="Trazado_192" data-name="Trazado 192" class="cls-3" d="M209.484,207.687a49.2,49.2,0,1,1,3.641-69.492h0A49.269,49.269,0,0,1,209.484,207.687Zm-62.322-69.236a43.957,43.957,0,1,0,62.069,3.252,43.971,43.971,0,0,0-62.069-3.252Z"/></g><g id="Grupo_73" data-name="Grupo 73"><path id="Trazado_193" data-name="Trazado 193" class="cls-3" d="M201.253,198.543a36.9,36.9,0,1,1,2.731-52.119A36.885,36.885,0,0,1,201.253,198.543Zm-45.861-50.949a31.656,31.656,0,1,0,44.7,2.343h0a31.678,31.678,0,0,0-44.7-2.344Z"/></g><g id="Grupo_74" data-name="Grupo 74"><path id="Trazado_194" data-name="Trazado 194" class="cls-3" d="M193.024,189.4a24.594,24.594,0,1,1,1.815-34.742A24.585,24.585,0,0,1,193.024,189.4Zm-29.4-32.663a19.353,19.353,0,1,0,27.327,1.432h0A19.366,19.366,0,0,0,163.623,156.738Z"/></g></g><g id="Grupo_76" data-name="Grupo 76" class="cls-5"><path id="Trazado_195" data-name="Trazado 195" class="cls-3" d="M1275.794,254.024l-19.706,376.137c4.389-1.866,8.71-3.872,12.94-6.057l19-362.707C1284.053,258.786,1279.963,256.339,1275.794,254.024Z"/><path id="Trazado_196" data-name="Trazado 196" class="cls-3" d="M1251.149,242.558,1230.38,638.992q6.5-1.711,12.826-3.882L1263.5,247.759Q1257.43,244.948,1251.149,242.558Z"/><path id="Trazado_197" data-name="Trazado 197" class="cls-3" d="M1300.2,270.116l-18.159,346.6q6.715-4.154,13.086-8.848l17.163-327.58Q1306.44,274.958,1300.2,270.116Z"/><path id="Trazado_198" data-name="Trazado 198" class="cls-3" d="M1226.3,235.087,1204.88,643.822c4.286-.5,8.523-1.182,12.727-1.976l21.138-403.462C1234.648,237.155,1230.5,236.038,1226.3,235.087Z"/><path id="Trazado_199" data-name="Trazado 199" class="cls-3" d="M1308.3,597.329q6.9-6.04,13.288-12.7l14.589-278.456q-5.633-7.3-11.888-14.023Z"/><path id="Trazado_200" data-name="Trazado 200" class="cls-3" d="M988.549,427.553a217.5,217.5,0,0,0,9.143,75.026l7.792-148.688A217.545,217.545,0,0,0,988.549,427.553Z"/><path id="Trazado_201" data-name="Trazado 201" class="cls-3" d="M1046.646,290.988l-14.59,278.456q5.632,7.3,11.889,14.023l15.99-305.181Q1053.031,284.323,1046.646,290.988Z"/><path id="Trazado_202" data-name="Trazado 202" class="cls-3" d="M1348.693,549.141l10.733-204.854a209.492,209.492,0,0,0-11.513-21.179L1335.029,569A209.623,209.623,0,0,0,1348.693,549.141Z"/><path id="Trazado_203" data-name="Trazado 203" class="cls-3" d="M1201.252,231.231l-21.683,413.81c4.237.08,8.455.055,12.631-.151L1213.8,232.7C1209.662,232.063,1205.472,231.594,1201.252,231.231Z"/><path id="Trazado_204" data-name="Trazado 204" class="cls-3" d="M1019.541,326.469l-10.735,204.852A209.179,209.179,0,0,0,1020.32,552.5l12.882-245.89A209.293,209.293,0,0,0,1019.541,326.469Z"/><path id="Trazado_205" data-name="Trazado 205" class="cls-3" d="M1073.111,267.745l-17.163,327.58q5.847,5.328,12.09,10.168L1086.2,258.9Q1079.482,263.051,1073.111,267.745Z"/><path id="Trazado_206" data-name="Trazado 206" class="cls-3" d="M1379.685,448.058a217.5,217.5,0,0,0-9.143-75.026l-7.79,148.685A217.531,217.531,0,0,0,1379.685,448.058Z"/><path id="Trazado_207" data-name="Trazado 207" class="cls-3" d="M1150.627,233.765,1129.485,637.23c4.1,1.229,8.241,2.347,12.451,3.3l21.414-408.736C1159.069,232.293,1154.831,232.97,1150.627,233.765Z"/><path id="Trazado_208" data-name="Trazado 208" class="cls-3" d="M1099.206,251.5l-19,362.708c3.98,2.616,8.068,5.062,12.237,7.377l19.707-376.138C1107.759,247.311,1103.437,249.317,1099.206,251.5Z"/><path id="Trazado_209" data-name="Trazado 209" class="cls-3" d="M1176.032,230.722l-21.6,412.187c4.135.64,8.325,1.107,12.546,1.47l21.684-413.8C1184.425,230.49,1180.211,230.518,1176.032,230.722Z"/><path id="Trazado_210" data-name="Trazado 210" class="cls-3" d="M1125.029,240.5l-20.3,387.352q6.069,2.81,12.35,5.2l20.77-396.433Q1131.355,238.328,1125.029,240.5Z"/></g><g id="Grupo_84" data-name="Grupo 84" class="cls-6"><g id="Grupo_83" data-name="Grupo 83"><g id="Grupo_82" data-name="Grupo 82"><g id="Grupo_77" data-name="Grupo 77"><path id="Trazado_211" data-name="Trazado 211" class="cls-3" d="M789.077,712.022a9.862,9.862,0,1,1-13.925-.73h0A9.858,9.858,0,0,1,789.077,712.022Z"/><path id="Trazado_212" data-name="Trazado 212" class="cls-3" d="M824.915,679.744a9.861,9.861,0,1,1-13.925-.73h0A9.857,9.857,0,0,1,824.915,679.744Z"/><path id="Trazado_213" data-name="Trazado 213" class="cls-3" d="M860.75,647.468a9.862,9.862,0,1,1-13.925-.73h0A9.858,9.858,0,0,1,860.75,647.468Z"/><path id="Trazado_214" data-name="Trazado 214" class="cls-3" d="M896.585,615.192a9.862,9.862,0,1,1-13.925-.73h0A9.86,9.86,0,0,1,896.585,615.192Z"/><path id="Trazado_215" data-name="Trazado 215" class="cls-3" d="M932.42,582.917a9.861,9.861,0,1,1-13.925-.73h0A9.857,9.857,0,0,1,932.42,582.917Z"/><path id="Trazado_216" data-name="Trazado 216" class="cls-3" d="M968.255,550.641a9.862,9.862,0,1,1-13.925-.73h0A9.859,9.859,0,0,1,968.255,550.641Z"/></g><g id="Grupo_78" data-name="Grupo 78"><path id="Trazado_217" data-name="Trazado 217" class="cls-3" d="M821.772,748.344a9.862,9.862,0,1,1-13.925-.73h0A9.858,9.858,0,0,1,821.772,748.344Z"/><path id="Trazado_218" data-name="Trazado 218" class="cls-3" d="M857.61,716.066a9.861,9.861,0,1,1-13.925-.73h0A9.858,9.858,0,0,1,857.61,716.066Z"/><path id="Trazado_219" data-name="Trazado 219" class="cls-3" d="M893.445,683.79a9.862,9.862,0,1,1-13.925-.73h0A9.858,9.858,0,0,1,893.445,683.79Z"/><path id="Trazado_220" data-name="Trazado 220" class="cls-3" d="M929.28,651.514a9.862,9.862,0,1,1-13.925-.73h0A9.86,9.86,0,0,1,929.28,651.514Z"/><path id="Trazado_221" data-name="Trazado 221" class="cls-3" d="M965.115,619.239a9.861,9.861,0,1,1-13.925-.73h0A9.858,9.858,0,0,1,965.115,619.239Z"/><path id="Trazado_222" data-name="Trazado 222" class="cls-3" d="M1000.95,586.963a9.862,9.862,0,1,1-13.925-.73h0A9.86,9.86,0,0,1,1000.95,586.963Z"/></g><g id="Grupo_79" data-name="Grupo 79"><path id="Trazado_223" data-name="Trazado 223" class="cls-3" d="M854.467,784.666a9.862,9.862,0,1,1-13.925-.73h0A9.858,9.858,0,0,1,854.467,784.666Z"/><path id="Trazado_224" data-name="Trazado 224" class="cls-3" d="M890.305,752.388a9.862,9.862,0,1,1-13.925-.73h0A9.858,9.858,0,0,1,890.305,752.388Z"/><path id="Trazado_225" data-name="Trazado 225" class="cls-3" d="M926.14,720.112a9.862,9.862,0,1,1-13.925-.73h0A9.858,9.858,0,0,1,926.14,720.112Z"/><path id="Trazado_226" data-name="Trazado 226" class="cls-3" d="M961.975,687.837a9.861,9.861,0,1,1-13.925-.73h0A9.857,9.857,0,0,1,961.975,687.837Z"/><path id="Trazado_227" data-name="Trazado 227" class="cls-3" d="M997.81,655.561a9.862,9.862,0,1,1-13.925-.73h0A9.858,9.858,0,0,1,997.81,655.561Z"/><path id="Trazado_228" data-name="Trazado 228" class="cls-3" d="M1033.645,623.285a9.862,9.862,0,1,1-13.925-.73h0A9.858,9.858,0,0,1,1033.645,623.285Z"/></g><g id="Grupo_80" data-name="Grupo 80"><path id="Trazado_229" data-name="Trazado 229" class="cls-3" d="M887.162,820.989a9.861,9.861,0,1,1-13.926-.731h0A9.859,9.859,0,0,1,887.162,820.989Z"/><path id="Trazado_230" data-name="Trazado 230" class="cls-3" d="M923,788.71a9.862,9.862,0,1,1-13.926-.73h0A9.859,9.859,0,0,1,923,788.71Z"/><path id="Trazado_231" data-name="Trazado 231" class="cls-3" d="M958.835,756.434a9.862,9.862,0,1,1-13.926-.73h0A9.859,9.859,0,0,1,958.835,756.434Z"/><path id="Trazado_232" data-name="Trazado 232" class="cls-3" d="M994.67,724.159a9.861,9.861,0,1,1-13.926-.73h0A9.859,9.859,0,0,1,994.67,724.159Z"/><path id="Trazado_233" data-name="Trazado 233" class="cls-3" d="M1030.505,691.883a9.862,9.862,0,1,1-13.926-.73h0A9.859,9.859,0,0,1,1030.505,691.883Z"/><path id="Trazado_234" data-name="Trazado 234" class="cls-3" d="M1066.34,659.607a9.862,9.862,0,1,1-13.926-.73h0A9.859,9.859,0,0,1,1066.34,659.607Z"/></g><g id="Grupo_81" data-name="Grupo 81"><path id="Trazado_235" data-name="Trazado 235" class="cls-3" d="M919.857,857.311a9.862,9.862,0,1,1-13.926-.73h0A9.859,9.859,0,0,1,919.857,857.311Z"/><path id="Trazado_236" data-name="Trazado 236" class="cls-3" d="M955.7,825.032a9.862,9.862,0,1,1-13.926-.73h0A9.859,9.859,0,0,1,955.7,825.032Z"/><path id="Trazado_237" data-name="Trazado 237" class="cls-3" d="M991.53,792.757a9.862,9.862,0,1,1-13.926-.728h0A9.858,9.858,0,0,1,991.53,792.757Z"/><path id="Trazado_238" data-name="Trazado 238" class="cls-3" d="M1027.365,760.481a9.862,9.862,0,1,1-13.926-.73h0A9.86,9.86,0,0,1,1027.365,760.481Z"/><path id="Trazado_239" data-name="Trazado 239" class="cls-3" d="M1063.2,728.205a9.862,9.862,0,1,1-13.926-.73h0A9.859,9.859,0,0,1,1063.2,728.205Z"/><path id="Trazado_240" data-name="Trazado 240" class="cls-3" d="M1099.035,695.93a9.862,9.862,0,1,1-13.926-.73h0A9.859,9.859,0,0,1,1099.035,695.93Z"/></g></g></g></g></g></g></svg>