<svg xmlns="http://www.w3.org/2000/svg" width="791.772" height="50.127" viewBox="0 0 791.772 50.127">
  <g id="Grupo_55" data-name="Grupo 55" transform="translate(6065.57 -1956.984)">
    <g id="Grupo_56" data-name="Grupo 56">
      <g id="Grupo_51" data-name="Grupo 51" transform="translate(183 545)">
        <g id="Grupo_41" data-name="Grupo 41">
          <g id="Grupo_35" data-name="Grupo 35">
            <path id="Trazado_18" data-name="Trazado 18" d="M-5815.347,1441.589v-5.336c1.183,0,2.167.018,3.152-.005,1.058-.025,2.117-.089,3.347-.143v-2.69l-6.493-.278V1428.7h6.9v-2.768h-10.179c-.616,3.018-.5,16.509.156,18.584a99.124,99.124,0,0,0,10.22-.022c-.062-1.111-.1-1.884-.163-2.905Z" fill="#fff"/>
            <path id="Trazado_19" data-name="Trazado 19" d="M-5680.05,1435.233c-.122-4.206-3.589-6.339-7.513-4.694-.557.233-1.1.511-1.879.88v-6.584h-2.743c-.6,2.463-.548,17.486.057,19.565h2.874c0-1.323-.023-2.468.006-3.612.043-1.745.012-3.5.213-5.23a2.845,2.845,0,0,1,3.259-2.694c1.594.087,2.226.822,2.3,2.921.07,1.995,0,3.994.042,5.99.017.873.149,1.744.227,2.6h3.174C-5680.033,1441.2-5679.964,1438.214-5680.05,1435.233Z" fill="#fff"/>
            <path id="Trazado_20" data-name="Trazado 20" d="M-5767.374,1426.38c-2.813-.9-5.688-.661-8.718-.415v18.4h3.107v-6.378c1.8-.239,3.291-.334,4.734-.65a5.451,5.451,0,0,0,4.411-5.319C-5763.673,1429.212-5764.883,1427.182-5767.374,1426.38Zm-.507,7.145c-1.3,1.6-3.061,1.215-4.883,1.2v-5.782c1.919-.188,3.7-.59,4.979,1.07A3.116,3.116,0,0,1-5767.881,1433.525Z" fill="#fff"/>
            <path id="Trazado_21" data-name="Trazado 21" d="M-5741.117,1440.281l-3.551-9.839h-3.524l5.5,14.057c-.529.929-.857,2.1-1.629,2.706a11.391,11.391,0,0,1-3.287,1.206c.049.651.095,1.274.167,2.244a21.6,21.6,0,0,0,3.263-.184c2.293-.487,3.394-2.267,4.158-4.273q2.667-6.994,5.254-14.019a11.25,11.25,0,0,0,.331-1.782h-3.23C-5738.78,1433.586-5739.869,1436.7-5741.117,1440.281Z" fill="#fff"/>
            <path id="Trazado_22" data-name="Trazado 22" d="M-5799.961,1440.251l-3.515-9.688c-1.865-.327-1.865-.327-3.361.211.14.453.254.93.431,1.381,1.434,3.635,2.91,7.253,4.311,10.9a3.438,3.438,0,0,1-2.687,4.849c-.476.094-.959.15-1.564.244v2.1c3.545,1.016,5.988-.212,7.375-3.79,1.894-4.883,3.661-9.814,5.466-14.73a8.548,8.548,0,0,0,.24-1.324h-3.19Z" fill="#fff"/>
            <path id="Trazado_23" data-name="Trazado 23" d="M-5786.661,1430.157a5.631,5.631,0,0,0-4.935,3.994,9.8,9.8,0,0,0-.136,6.126,5.62,5.62,0,0,0,2.859,3.608c2.862,1.421,5.712,1.185,8.681-.131-.057-.907-.1-1.607-.155-2.474-1.426.3-2.615.648-3.829.79-2.61.306-4.089-.978-4.182-3.719l8.486-.161C-5778.88,1432.862-5781.812,1429.563-5786.661,1430.157Zm-1.707,5.418c.427-2.208,1.285-2.964,3.038-2.8,1.5.135,2,.782,2.026,2.8Z" fill="#fff"/>
            <path id="Trazado_24" data-name="Trazado 24" d="M-5712.731,1430.19a9.691,9.691,0,0,0-5.836.857c-.205.108-.341.348-.6.63.27.55.55,1.118.833,1.693a33.109,33.109,0,0,1,4.045-.587c1.685-.042,2.044.527,1.974,2.782-.781.064-1.6.078-2.4.208a17.175,17.175,0,0,0-3.4.725,4.123,4.123,0,0,0-2.53,4.875,3.91,3.91,0,0,0,3.769,3.39,5.79,5.79,0,0,0,5.041-1.74c.751,1.438,1.632,1.973,3.074,1.118,0-3.342.165-6.744-.057-10.121C-5708.969,1431.668-5710.412,1430.475-5712.731,1430.19Zm-2.526,11.99a1.825,1.825,0,0,1-2.015-1.436,1.78,1.78,0,0,1,1.143-2.2,29.894,29.894,0,0,1,3.7-.784C-5711.978,1440.7-5713.083,1442.2-5715.257,1442.18Z" fill="#fff"/>
            <path id="Trazado_25" data-name="Trazado 25" d="M-5753.534,1430.234a9.94,9.94,0,0,0-6.079.77,7.2,7.2,0,0,0-.75.529c.389.717.715,1.316,1,1.839a30.488,30.488,0,0,1,3.917-.595c1.812-.036,2.253.661,1.942,2.789-.7.061-1.436.1-2.164.194a18.636,18.636,0,0,0-2.937.492,4.2,4.2,0,0,0-3.131,5.18,3.924,3.924,0,0,0,4.54,3.313,24.906,24.906,0,0,0,4.562-1.3c.333.705,1.009,1.495,2.653.782,0-3.567.122-7.122-.05-10.662C-5750.122,1431.709-5751.526,1430.546-5753.534,1430.234Zm-2.77,11.946a1.8,1.8,0,0,1-2.038-1.4,1.969,1.969,0,0,1,1.082-2.267,6.4,6.4,0,0,1,3.8-.35C-5753.056,1440.615-5754.145,1442.147-5756.3,1442.18Z" fill="#fff"/>
            <path id="Trazado_26" data-name="Trazado 26" d="M-5697.6,1436.864c-1.106-.568-2.28-1-3.41-1.52-.749-.345-1.578-.663-1.351-1.975,1.765-1.339,3.715-.1,5.8,0,.279-.729.547-1.429.834-2.177a9.769,9.769,0,0,0-7.05-.815,3.559,3.559,0,0,0-3.018,3.214,3.65,3.65,0,0,0,2.133,3.871c.96.49,1.962.895,2.93,1.369.88.432,1.882.769,2,2.288-2.048,2.273-4.479.414-6.9.239v2.608a10.375,10.375,0,0,0,7.315.4,3.788,3.788,0,0,0,2.883-3.391A3.793,3.793,0,0,0-5697.6,1436.864Z" fill="#fff"/>
            <path id="Trazado_27" data-name="Trazado 27" d="M-5723.239,1433.287l.747-2.153c-3.428-1.723-7.324-1.205-9.171,1.06-2.085,2.557-2.073,8.026.023,10.572,1.849,2.248,5.578,2.7,8.814.984v-2.444c-2.4.386-4.623,1.5-6.169-.61a5.753,5.753,0,0,1-.264-6.189C-5727.935,1431.917-5725.5,1433.2-5723.239,1433.287Z" fill="#fff"/>
          </g>
          <text id="TM" transform="translate(-5680.007 1428.759)" fill="#fff" font-size="7.129" font-family="Poppins-Regular, Poppins"><tspan x="0" y="0">TM</tspan></text>
          <g id="Grupo_40" data-name="Grupo 40">
            <path id="Trazado_28" data-name="Trazado 28" d="M-5853.251,1448.662v-6.311h-2.759v9.07h9.07v-2.759Z" fill="#fff"/>
            <path id="Trazado_29" data-name="Trazado 29" d="M-5831.5,1426.828v6.311h2.759v-9.07h-9.07v2.759Z" fill="#fff"/>
            <g id="Grupo_37" data-name="Grupo 37">
              <path id="Trazado_30" data-name="Trazado 30" d="M-5838.715,1432.581h-5.653v2.509h4.7v13.831h-5.559v2.5h6.514a1.545,1.545,0,0,0,1.545-1.545v-15.751A1.544,1.544,0,0,0-5838.715,1432.581Z" fill="#fff"/>
              <g id="Grupo_36" data-name="Grupo 36">
                <path id="Trazado_31" data-name="Trazado 31" d="M-5854.466,1432.581a1.544,1.544,0,0,0-1.544,1.544v6.967h2.5v-6h5.235v-2.509Z" fill="#fff"/>
              </g>
            </g>
            <g id="Grupo_39" data-name="Grupo 39">
              <g id="Grupo_38" data-name="Grupo 38">
                <path id="Trazado_32" data-name="Trazado 32" d="M-5845.077,1440.4v-13.83h5.559v-2.5h-6.514a1.544,1.544,0,0,0-1.545,1.544v15.751a1.545,1.545,0,0,0,1.545,1.545h5.664v-2.51Z" fill="#fff"/>
              </g>
              <path id="Trazado_33" data-name="Trazado 33" d="M-5831.237,1434.4v6h-5.235v2.51h6.19a1.545,1.545,0,0,0,1.545-1.545V1434.4Z" fill="#fff"/>
            </g>
          </g>
        </g>
        <g id="Grupo_48" data-name="Grupo 48">
          <g id="Grupo_42" data-name="Grupo 42">
            <path id="Trazado_34" data-name="Trazado 34" d="M-5472.034,1426.928c-.162.285-.237.355-.237.426-.006,1.989,0,3.977,0,6.4-.665-.355-.944-.507-1.227-.653-3.862-1.99-7.6-.393-8.332,3.843a15.946,15.946,0,0,0,.224,6.372c.837,3.38,4.472,4.752,7.592,3.188.566-.284,1.079-.674,1.713-1.077.589,1.408,1.5,1.784,2.875,1.085v-19.585Zm-.514,15.329a2.854,2.854,0,0,1-3.162,2.223,2.631,2.631,0,0,1-2.906-2.195,16.986,16.986,0,0,1,.015-5.145,2.709,2.709,0,0,1,3.1-2.284,2.911,2.911,0,0,1,2.987,2.478c.179.8.214,1.637.319,2.505A17.387,17.387,0,0,1-5472.548,1442.257Z" fill="#fff"/>
            <path id="Trazado_35" data-name="Trazado 35" d="M-5558.2,1428.174a58.059,58.059,0,0,0-7.718-.069v18.63h2.886v-6.646a49.911,49.911,0,0,0,5.068-.708c2.918-.726,4.352-2.8,4.3-5.884C-5553.721,1430.545-5555.144,1428.591-5558.2,1428.174Zm.742,7.432c-1.309,1.8-3.265,1.539-5.352,1.435v-6.293c2.029-.331,3.964-.577,5.336,1.132A3,3,0,0,1-5557.459,1435.606Z" fill="#fff"/>
            <path id="Trazado_36" data-name="Trazado 36" d="M-5606.632,1438.177h6.784c-.061-.965-.1-1.668-.165-2.625h-6.69v-5h7.18v-2.564h-10.319v18.7h10.329v-2.6h-7.119Z" fill="#fff"/>
            <path id="Trazado_37" data-name="Trazado 37" d="M-5590.662,1443.2l-3.829-10.633h-3.232c.4,1.156.664,2.019,1,2.855,1.258,3.174,2.562,6.33,3.8,9.511,1.259,3.232-.06,5.372-3.469,5.738a3.834,3.834,0,0,0-.736.242v1.839c3.846.78,5.938-.322,7.335-3.928,1.775-4.582,3.461-9.2,5.173-13.8.279-.75.5-1.523.778-2.394h-3.217C-5588.244,1436.095-5589.385,1439.448-5590.662,1443.2Z" fill="#fff"/>
            <path id="Trazado_38" data-name="Trazado 38" d="M-5530.066,1443.1c-1.359-3.705-2.608-7.111-3.866-10.538h-3.242c.406,1.122.664,1.9.964,2.658,1.314,3.325,2.659,6.64,3.957,9.972,1.119,2.874-.261,5.113-3.32,5.464-.315.036-.626.112-1,.181v1.905c3.775.8,5.869-.214,7.248-3.632,1.431-3.547,2.723-7.15,4.064-10.734.692-1.85,1.355-3.711,2.106-5.772h-3.26Z" fill="#fff"/>
            <path id="Trazado_39" data-name="Trazado 39" d="M-5499.866,1432.616a9.382,9.382,0,0,0-7.608,1.043l1.08,1.8c5.235-1.363,6.518-.835,6.121,2.539-.868.056-1.781.049-2.671.19a16.523,16.523,0,0,0-3.632.79c-1.954.793-2.67,2.471-2.294,4.74a3.716,3.716,0,0,0,3.537,3.294,5.772,5.772,0,0,0,5.376-1.771c1.146,1.47,1.146,1.47,3.04,1.386,0-3.574.072-6.976-.029-10.373A3.7,3.7,0,0,0-5499.866,1432.616Zm-3.194,12.057c-1.154.121-2.216-.128-2.558-1.4a2.086,2.086,0,0,1,1.484-2.737,29.615,29.615,0,0,1,4-.626C-5500.014,1443.121-5500.914,1444.449-5503.06,1444.673Z" fill="#fff"/>
            <path id="Trazado_40" data-name="Trazado 40" d="M-5574.09,1432.458a6.286,6.286,0,0,0-7.979,4.467c-1.307,4.538.518,8.881,4.259,9.836a10.358,10.358,0,0,0,7.169-.617v-2.118c-7.277.639-8.264.224-8.348-3.675h9.012C-5569.584,1435.855-5571.023,1433.259-5574.09,1432.458Zm-4.805,5.521c.291-2.392,1.226-3.345,3.123-3.267,1.715.071,2.433.907,2.661,3.267Z" fill="#fff"/>
            <path id="Trazado_41" data-name="Trazado 41" d="M-5543.224,1432.423a34.194,34.194,0,0,0-5.841.765c-.2.031-.37.305-.656.558l.841,1.681a29.726,29.726,0,0,1,3.778-.7c2.125-.116,2.777.766,2.47,3.26-.857.061-1.758.08-2.646.2a16.322,16.322,0,0,0-3.169.577,4.08,4.08,0,0,0-2.807,4.914,3.683,3.683,0,0,0,4.006,3.317,31.35,31.35,0,0,0,5.38-1.245c.293.591.891,1.644,2.545.759,0-3.435.129-6.992-.05-10.533A3.715,3.715,0,0,0-5543.224,1432.423Zm-1.747,12.153c-1.506.368-2.734-.16-3.082-1.323a2.263,2.263,0,0,1,1.8-2.805,27.71,27.71,0,0,1,3.577-.5C-5542.187,1442.773-5542.889,1444.068-5544.971,1444.576Z" fill="#fff"/>
            <path id="Trazado_42" data-name="Trazado 42" d="M-5511.822,1435.357c.249-.757.486-1.476.717-2.175-3.982-1.653-7.692-.935-9.5,1.681-1.837,2.656-1.592,8.1.466,10.37,1.932,2.135,5.844,2.5,8.85.725-.039-.634-.082-1.345-.13-2.107-2.329.327-4.629,1.566-6.4-.746-1.131-1.472-1.142-5.072-.085-6.71C-5516.357,1433.993-5514.089,1435.12-5511.822,1435.357Z" fill="#fff"/>
            <path id="Trazado_43" data-name="Trazado 43" d="M-5489.661,1434.413c-.383-.776-.664-1.344-.988-2l-1.887.276v14.063h2.883c0-1.084,0-1.9,0-2.71,0-1.5-.048-3,.023-4.5.136-2.863,1.27-4.043,4.069-4.382.393-.047.78-.134,1.3-.226v-2.418C-5486.573,1431.729-5488.11,1433.062-5489.661,1434.413Z" fill="#fff"/>
          </g>
          <text id="TM-2" data-name="TM" transform="translate(-5466.798 1426.541)" fill="#fff" font-size="7.129" font-family="Poppins-Regular, Poppins"><tspan x="0" y="0">TM</tspan></text>
          <g id="Grupo_47" data-name="Grupo 47">
            <path id="Trazado_44" data-name="Trazado 44" d="M-5643.066,1450.88v-6.311h-2.759v9.07h9.07v-2.759Z" fill="#fff" opacity="0.41"/>
            <path id="Trazado_45" data-name="Trazado 45" d="M-5621.31,1429.046v6.311h2.759v-9.07h-9.07v2.759Z" fill="#fff" opacity="0.41"/>
            <g id="Grupo_44" data-name="Grupo 44">
              <path id="Trazado_46" data-name="Trazado 46" d="M-5628.529,1434.8h-5.653v2.509h4.7v13.83h-5.558v2.5h6.514a1.544,1.544,0,0,0,1.544-1.544v-15.751A1.544,1.544,0,0,0-5628.529,1434.8Z" fill="#fff"/>
              <g id="Grupo_43" data-name="Grupo 43">
                <path id="Trazado_47" data-name="Trazado 47" d="M-5644.28,1434.8a1.545,1.545,0,0,0-1.545,1.544v6.967h2.5v-6h5.236V1434.8Z" fill="#fff"/>
              </g>
            </g>
            <g id="Grupo_46" data-name="Grupo 46">
              <g id="Grupo_45" data-name="Grupo 45">
                <path id="Trazado_48" data-name="Trazado 48" d="M-5634.892,1442.617v-13.83h5.559v-2.5h-6.514a1.544,1.544,0,0,0-1.545,1.544v15.751a1.545,1.545,0,0,0,1.545,1.545h5.665v-2.51Z" fill="#fff"/>
              </g>
              <path id="Trazado_49" data-name="Trazado 49" d="M-5621.051,1436.615v6h-5.236v2.51h6.191a1.546,1.546,0,0,0,1.545-1.545v-6.967Z" fill="#fff"/>
            </g>
          </g>
        </g>
        <g id="Grupo_49" data-name="Grupo 49">
          <path id="Trazado_50" data-name="Trazado 50" d="M-5907.4,1436.238a2.137,2.137,0,0,1-.1.67v10.5h-4.55v-10.5a2.137,2.137,0,0,1-.1-.67,2.377,2.377,0,0,1,2.38-2.37A2.369,2.369,0,0,1-5907.4,1436.238Z" fill="none" stroke="#fff" stroke-miterlimit="10" stroke-width="1"/>
          <path id="Trazado_51" data-name="Trazado 51" d="M-5899.772,1436.238a2.1,2.1,0,0,1-.1.67v10.5h-4.55v-10.5a2.151,2.151,0,0,1-.1-.67,2.377,2.377,0,0,1,2.379-2.37A2.369,2.369,0,0,1-5899.772,1436.238Z" fill="none" stroke="#fff" stroke-miterlimit="10" stroke-width="1"/>
          <path id="Trazado_52" data-name="Trazado 52" d="M-5892.14,1436.238a2.123,2.123,0,0,1-.1.67v10.5h-4.55v-10.5a2.137,2.137,0,0,1-.1-.67,2.377,2.377,0,0,1,2.38-2.37A2.369,2.369,0,0,1-5892.14,1436.238Z" fill="none" stroke="#fff" stroke-miterlimit="10" stroke-width="1"/>
          <path id="Trazado_53" data-name="Trazado 53" d="M-5901.128,1430.318h-16.878a.4.4,0,0,1-.17-.752l15.855-7.538a.393.393,0,0,1,.346,0l15.3,8.024a.154.154,0,0,1-.017.289l-1.634-.023a.52.52,0,0,0-.523.519v16.567h-27.628l-.14-17.09" fill="none" stroke="#fff" stroke-miterlimit="10" stroke-width="1"/>
          <path id="Trazado_54" data-name="Trazado 54" d="M-5886.3,1452.248h-31.989a1.4,1.4,0,0,1-1.373-1.686l.421-2.036a1.4,1.4,0,0,1,1.373-1.118h31.147a1.4,1.4,0,0,1,1.373,1.118l.421,2.036A1.4,1.4,0,0,1-5886.3,1452.248Z" fill="none" stroke="#fff" stroke-miterlimit="10" stroke-width="1"/>
          <line id="Línea_1" data-name="Línea 1" x1="2.233" transform="translate(-5898.64 1430.175)" fill="none" stroke="#fff" stroke-miterlimit="10" stroke-width="1"/>
        </g>
        <g id="Grupo_50" data-name="Grupo 50">
          <path id="Trazado_55" data-name="Trazado 55" d="M-6229.9,1446.585l5.776-19.052h5.154l-5.776,19.052Z" fill="#fff"/>
          <path id="Trazado_56" data-name="Trazado 56" d="M-6232.2,1427.538l-4.638,8.077a19.524,19.524,0,0,0-2.2,4.52h-.071c.083-1.694-.155-3.774-.177-4.951l-.512-7.645h-8.679l-.088.512a3.6,3.6,0,0,1,3.916,3.411l1.692,15.122h5.34l10.8-19.047Z" fill="#fff"/>
          <path id="Trazado_57" data-name="Trazado 57" d="M-6192.112,1446.583l-.143-2.834-6.437,0-1.316,2.838h-5.6l10.148-19.016h6.869l1.72,19.015Zm-.592-11.239a43.368,43.368,0,0,1-.01-4.475h-.076c-.314.945-1.661,3.786-2.254,5.182l-1.917,4.177h4.519l-.262-4.883Z" fill="#fff"/>
          <path id="Trazado_58" data-name="Trazado 58" d="M-6213.553,1447.124a14.423,14.423,0,0,1-7.78-2.183l2.456-3.75c1.549.865,2.764,1.864,5.56,1.864a2.393,2.393,0,0,0,2.258-1.085c.716-1.24-.165-1.906-2.179-3.046l-.994-.647c-2.986-2.04-4.278-3.978-2.873-7.361.9-2.163,3.272-3.8,7.184-3.8a11.534,11.534,0,0,1,6.7,2.306l-2.822,3.311a6.276,6.276,0,0,0-4-1.751,2.4,2.4,0,0,0-2.2.985c-.536,1.064.174,1.79,1.743,2.763l1.182.752c3.625,2.286,4.489,4.683,3.581,6.925-1.563,3.857-4.621,4.718-7.822,4.718Z" fill="#fff"/>
        </g>
      </g>
      <g id="Grupo_54" data-name="Grupo 54" transform="translate(183 545)">
        <g id="HoWEsR.tif">
          <g id="Grupo_52" data-name="Grupo 52">
            <path id="Trazado_59" data-name="Trazado 59" d="M-6067.185,1439.217c0-1.442,0-2.885,0-4.327,0-.68.1-1.568.952-1.2,2.6,1.114,5.773-1.863,8.082,1.2.433.573.8-.166,1.139-.411a4.885,4.885,0,0,1,5.414-.542c1.821.921,2.147,2.631,2.093,4.5-.046,1.6-.048,3.207,0,4.807.033,1-.025,1.612-1.353,1.609-1.445,0-1.238-.842-1.238-1.711,0-1.6.062-3.209-.04-4.8-.1-1.511-.806-2.669-2.515-2.617a2.485,2.485,0,0,0-2.579,2.607c-.093,1.758-.1,3.524-.058,5.285.026.945-.289,1.223-1.226,1.224s-1.255-.287-1.222-1.228c.061-1.761.039-3.525.006-5.288-.031-1.6-.794-2.608-2.479-2.592a2.359,2.359,0,0,0-2.529,2.578c-.055,1.762-.064,3.527-.014,5.288.027.944-.322,1.229-1.249,1.237-.981.009-1.232-.389-1.2-1.283C-6067.148,1442.1-6067.185,1440.659-6067.185,1439.217Z" fill="#fff"/>
            <path id="Trazado_60" data-name="Trazado 60" d="M-6028.5,1444.9a7.514,7.514,0,0,1-3.458-.514c-.631-.33-1.741-.279-1.185-1.532.417-.939.98-.978,1.875-.529a5.177,5.177,0,0,0,3.742.4c.616-.169,1.294-.438,1.239-1.224-.045-.636-.637-.89-1.194-1.007-.94-.2-1.9-.285-2.837-.508-1.617-.386-2.847-1.275-2.8-3.088a3.4,3.4,0,0,1,2.731-3.239,8.109,8.109,0,0,1,5.18.282c.492.165,1.445.232.905,1.234-.324.6-.506,1.436-1.541.978a6.315,6.315,0,0,0-3.289-.486c-.7.076-1.291.376-1.317,1.14-.024.715.617.853,1.173.953.784.143,1.589.191,2.362.376,1.762.421,3.253,1.3,3.178,3.326-.072,1.939-1.456,2.929-3.262,3.3A9.661,9.661,0,0,1-6028.5,1444.9Z" fill="#fff"/>
            <path id="Trazado_61" data-name="Trazado 61" d="M-6014.935,1442.561c.928-.425,1.486-.179,1.75.846.345,1.338-.759,1.212-1.406,1.359-3.365.765-5.1-.614-5.147-4.006-.013-1.041-.015-2.083,0-3.124s.21-2.168-1.492-1.931c-.775.108-.859-.483-.848-1.11.01-.561.178-1.019.786-.93,1.906.28,1.575-1.044,1.538-2.111-.028-.836.092-1.3,1.134-1.322,1.108-.019,1.46.4,1.284,1.395-.314,1.767.507,2.214,2.127,2.049.718-.073,1.878-.53,1.825,1.056s-1.243,1.026-1.915.953c-1.758-.193-2.259.527-2.052,2.153a16.725,16.725,0,0,1,.015,2.641C-6017.387,1442.175-6016.539,1442.79-6014.935,1442.561Z" fill="#fff"/>
            <path id="Trazado_62" data-name="Trazado 62" d="M-5983.8,1444.887c-3.124.067-5.022-.952-6-3.261a5.65,5.65,0,0,1,1.051-6.473c1.838-1.926,4.208-2.17,6.659-1.394.64.2,1.726.33,1.255,1.569-.406,1.067-.971,1.089-2.014.682-2.3-.9-4.181-.02-4.835,2.022a3.6,3.6,0,0,0,2.277,4.628,3.2,3.2,0,0,0,2.558-.286c.992-.574,1.592-.407,2.016.635.508,1.251-.628,1.325-1.245,1.571A5.927,5.927,0,0,1-5983.8,1444.887Z" fill="#fff"/>
            <path id="Trazado_63" data-name="Trazado 63" d="M-5964.617,1439.264c0-1.443.057-2.89-.017-4.33-.057-1.1.564-1.678,1.4-1.248,1.34.692,2.378.03,3.556-.238.686-.156,1.793-.643,1.862.617.038.7-.1,1.79-1.5,1.619-2.2-.267-2.749,1.106-2.694,2.988.039,1.362.039,2.728,0,4.09-.029.928.481,2.13-1.351,2.089-1.676-.037-1.2-1.124-1.233-1.978C-5964.652,1441.672-5964.617,1440.467-5964.617,1439.264Z" fill="#fff"/>
            <path id="Trazado_64" data-name="Trazado 64" d="M-5998.067,1439.25c0-1.524.043-3.05-.017-4.572-.034-.888.516-1.378,1.107-.99,1.522,1,2.713-.169,4.051-.314.641-.07,1.624-.376,1.559.816-.042.781-.239,1.6-1.421,1.473-2.328-.241-2.88,1.21-2.87,3.149.009,1.6-.049,3.211.02,4.812.042.973-.33,1.2-1.245,1.208-.972.011-1.238-.337-1.2-1.25C-5998.023,1442.14-5998.067,1440.694-5998.067,1439.25Z" fill="#fff"/>
            <path id="Trazado_65" data-name="Trazado 65" d="M-5945.487,1430.57c0-.729.1-1.447-1.041-1.446-1.021,0-1.452.322-1.389,1.391.074,1.276.017,2.559.017,4.051-3.111-1.588-5.469-1.4-7.306.411a6.227,6.227,0,0,0-.971,7.127,5.316,5.316,0,0,0,5.9,2.695c1.167-.262,2.149-.8,3.407-.06.746.438,1.424-.008,1.406-1.178C-5945.527,1439.232-5945.488,1434.9-5945.487,1430.57Zm-5.392,12.219a3.447,3.447,0,0,1-3.435-3.525,3.248,3.248,0,0,1,3.245-3.618,3.379,3.379,0,0,1,3.489,3.431A3.624,3.624,0,0,1-5950.879,1442.789Z" fill="#fff"/>
            <path id="Trazado_66" data-name="Trazado 66" d="M-6035.709,1439.234c0-.639.041-1.281-.009-1.916-.091-1.175.516-2.617-.3-3.45a1.847,1.847,0,0,0-2.681.553c-.014.02-.491-.347-.777-.481a5.2,5.2,0,0,0-6.161,1.078,6.046,6.046,0,0,0-1.089,6.675,5.11,5.11,0,0,0,5.37,3.189c1.492-.1,2.886-1.063,4.506-.138.8.458,1.185-.306,1.151-1.2C-6035.75,1442.112-6035.709,1440.673-6035.709,1439.234Zm-5.779,3.552a3.451,3.451,0,0,1-3.3-3.457,3.261,3.261,0,0,1,3.206-3.693,3.33,3.33,0,0,1,3.454,3.5A3.517,3.517,0,0,1-6041.488,1442.786Z" fill="#fff"/>
            <path id="Trazado_67" data-name="Trazado 67" d="M-5969.848,1433.825c-.745.65-.984.455-1.638.163a5.158,5.158,0,0,0-6.318,1.236,6.109,6.109,0,0,0-.731,6.946,5.267,5.267,0,0,0,5.941,2.611c1.183-.309,2.144-.756,3.388-.04.724.416,1.507.024,1.428-1.175-.1-1.437-.023-2.886-.022-4.33,0-1.363-.092-2.734.022-4.088C-5967.616,1433.222-5969.165,1433.229-5969.848,1433.825Zm-3.448,8.964a3.613,3.613,0,0,1-3.49-3.532,3.432,3.432,0,0,1,3.328-3.609,3.219,3.219,0,0,1,3.4,3.439A3.466,3.466,0,0,1-5973.3,1442.789Z" fill="#fff"/>
            <path id="Trazado_68" data-name="Trazado 68" d="M-6006.585,1433.426a5.153,5.153,0,0,0-4.508,3.753,5.8,5.8,0,0,0,1.337,6.22c1.928,1.912,4.316,1.846,6.706,1.024.688-.236,1.963-.2,1.418-1.6-.49-1.261-1.3-.74-2.1-.369a3.884,3.884,0,0,1-3.9-.147c-.544-.341-1.139-.816-1.047-1.492.13-.956,1.006-.507,1.562-.558.794-.073,1.6-.019,2.4-.02.961,0,1.921-.012,2.882,0,.636.01,1.018-.148,1.128-.9A5.321,5.321,0,0,0-6006.585,1433.426Zm.692,4.83c-.906-.5-2.5.622-2.666-.711-.152-1.222,1.146-1.967,2.533-1.984,1.351-.018,2.692.477,2.612,1.851C-6003.509,1439.046-6005.12,1437.665-6005.893,1438.256Z" fill="#fff"/>
          </g>
        </g>
        <g id="Grupo_53" data-name="Grupo 53">
          <path id="Trazado_69" data-name="Trazado 69" d="M-6128.1,1437.048a25.012,25.012,0,0,1,9.5-19.64,24.954,24.954,0,0,0-15.562-5.424,25.065,25.065,0,0,0-25.064,25.064,25.064,25.064,0,0,0,25.064,25.063,24.948,24.948,0,0,0,15.562-5.424A25.009,25.009,0,0,1-6128.1,1437.048Z" fill="#fff"/>
          <path id="Trazado_70" data-name="Trazado 70" d="M-6103.031,1411.984a24.95,24.95,0,0,0-15.562,5.424,25.016,25.016,0,0,1,9.5,19.64,25.012,25.012,0,0,1-9.5,19.639,24.944,24.944,0,0,0,15.562,5.424,25.063,25.063,0,0,0,25.063-25.063A25.064,25.064,0,0,0-6103.031,1411.984Z" fill="#fff" opacity="0.63"/>
          <ellipse id="Elipse_9" data-name="Elipse 9" cx="9.502" cy="19.64" rx="9.502" ry="19.64" transform="translate(-6128.095 1417.408)" fill="#fff" opacity="0.47"/>
        </g>
      </g>
    </g>
  </g>
</svg>
