<svg id="Grupo_113" data-name="Grupo 113" xmlns="http://www.w3.org/2000/svg" width="23.5" height="23.498" viewBox="0 0 23.5 23.498">
  <path id="Trazado_15" data-name="Trazado 15" d="M810.6,10227.178a1.382,1.382,0,1,0,1.381,1.381,1.381,1.381,0,0,0-1.381-1.381Z" transform="translate(-792.669 -10222.852)" fill="#5c64f2"/>
  <path id="Trazado_16" data-name="Trazado 16" d="M799.523,10239.112a3.921,3.921,0,1,1,3.92-3.921,3.925,3.925,0,0,1-3.92,3.921Zm0-10.042a6.121,6.121,0,1,0,6.121,6.121,6.127,6.127,0,0,0-6.121-6.121Z" transform="translate(-787.733 -10223.441)" fill="#5c64f2"/>
  <path id="Trazado_17" data-name="Trazado 17" d="M806.444,10237.311a4.861,4.861,0,0,1-4.861,4.86h-9.342a4.861,4.861,0,0,1-4.862-4.86v-9.345a4.862,4.862,0,0,1,4.862-4.86h9.342a4.861,4.861,0,0,1,4.861,4.86v9.345Zm-4.861-16.422h-9.342a7.078,7.078,0,0,0-7.079,7.077v9.345a7.078,7.078,0,0,0,7.079,7.076h9.342a7.077,7.077,0,0,0,7.078-7.076v-9.345a7.078,7.078,0,0,0-7.078-7.077Z" transform="translate(-785.162 -10220.889)" fill="#5c64f2"/>
</svg>
