<svg id="Capa_1" data-name="Capa 1" xmlns="http://www.w3.org/2000/svg" viewBox="0 0 272.594 47.954"><defs><style>.cls-1{fill:#fff;}.cls-2{isolation:isolate;}.cls-3{fill:none;stroke:#fff;}</style></defs><title>LOGO EYEWALLET PRO</title><g id="Grupo_14" data-name="Grupo 14"><g id="Grupo_13" data-name="Grupo 13"><g id="Grupo_12" data-name="Grupo 12"><path id="Trazado_4" data-name="Trazado 4" class="cls-1" d="M23.77,29.476a1.279,1.279,0,0,1-.1-1.458L36.6,6.564,31.46.146a.385.385,0,0,0-.541-.059.392.392,0,0,0-.089.1L14.066,28.018a1.276,1.276,0,0,0,.1,1.458L27.922,46.569a3.693,3.693,0,0,0,6.052-.412l1.374-2.3Z"/><g id="Grupo_11" data-name="Grupo 11"><path id="Trazado_5" data-name="Trazado 5" class="cls-1" d="M10.2,29.476a1.276,1.276,0,0,1-.1-1.458l13.009-21.6L18.091.144a.386.386,0,0,0-.629.042L.7,28.018a1.276,1.276,0,0,0,.1,1.458L14.551,46.569a3.693,3.693,0,0,0,6.052-.412L21.892,44Z"/></g></g><path id="Trazado_6" data-name="Trazado 6" class="cls-1" d="M61.5,20.736l-1.11-1.386-.569-.71-2.34-2.924h0l-2.936-3.67-.008-.012-2.1-2.619h0L49.516,5.756h0L48.439,4.409l-.669-.835h0L45.025.144a.385.385,0,0,0-.54-.06.414.414,0,0,0-.089.1l-7.573,12.57-.507.843L27.633,28.018a1.277,1.277,0,0,0,.1,1.459L41.482,46.569a3.693,3.693,0,0,0,6.052-.412L61.626,22.608A1.642,1.642,0,0,0,61.5,20.736Z"/></g><g id="PRO." class="cls-2"><g class="cls-2"><path class="cls-1" d="M212.366,13.615H221.1c4.06,0,6.272,2.744,6.272,6.02,0,3.248-2.24,5.964-6.272,5.964h-4.76v6.692h-3.976Zm8.2,3.416h-4.228v5.152h4.228a2.581,2.581,0,1,0,0-5.152Z"/><path class="cls-1" d="M236.726,25.6h-2.912v6.692h-3.976V13.615h8.736c3.892,0,6.272,2.548,6.272,6.02a5.359,5.359,0,0,1-4.088,5.544l4.2,7.112h-4.564Zm1.26-8.568h-4.172v5.152h4.172a2.585,2.585,0,1,0,0-5.152Z"/><path class="cls-1" d="M256.69,13.307a9.384,9.384,0,0,1,9.772,9.66,9.758,9.758,0,0,1-19.516,0A9.377,9.377,0,0,1,256.69,13.307Zm0,3.528c-3.444,0-5.656,2.632-5.656,6.132,0,3.472,2.212,6.132,5.656,6.132s5.684-2.66,5.684-6.132C262.374,19.467,260.134,16.835,256.69,16.835Z"/><path class="cls-1" d="M270.326,28.063a2.268,2.268,0,1,1-2.268,2.268A2.295,2.295,0,0,1,270.326,28.063Z"/></g></g><g id="EYEWALLET" class="cls-2"><g class="cls-2"><path class="cls-1" d="M83.2,31.716H74.842V16.725H83.2v1.548H76.585V23.1H82.8v1.538H76.585v5.517H83.2Z"/><path class="cls-1" d="M90.336,24.22l4-7.495h1.886l-5,9.177v5.814H89.454V25.984L84.46,16.725h1.907Z"/><path class="cls-1" d="M106.639,31.716H98.282V16.725h8.357v1.548h-6.613V23.1h6.213v1.538h-6.213v5.517h6.613Z"/><path class="cls-1" d="M123.046,31.716h-1.723L118.3,21.677q-.216-.664-.482-1.681a9.759,9.759,0,0,1-.277-1.22,23.151,23.151,0,0,1-.718,2.964l-2.932,9.976h-1.723l-3.989-14.991h1.846l2.369,9.259a34.74,34.74,0,0,1,.718,3.527,25.477,25.477,0,0,1,.82-3.67l2.686-9.116h1.846l2.82,9.2a27.929,27.929,0,0,1,.83,3.588,30.728,30.728,0,0,1,.739-3.547l2.358-9.239h1.846Z"/><path class="cls-1" d="M138.826,31.716l-1.866-4.767h-6.009l-1.845,4.767h-1.764l5.927-15.052h1.466l5.9,15.052Zm-2.409-6.337-1.744-4.645q-.337-.881-.7-2.163a19.132,19.132,0,0,1-.646,2.163l-1.763,4.645Z"/><path class="cls-1" d="M142.692,31.716V16.725h1.743V30.137h6.614v1.579Z"/><path class="cls-1" d="M153.592,31.716V16.725h1.743V30.137h6.614v1.579Z"/><path class="cls-1" d="M172.849,31.716h-8.357V16.725h8.357v1.548h-6.614V23.1h6.214v1.538h-6.214v5.517h6.614Z"/><path class="cls-1" d="M180.785,31.716h-1.743V18.273H174.3V16.725h11.238v1.548h-4.748Z"/></g></g><path id="Trazado_242" data-name="Trazado 242" class="cls-3" d="M198.351,6.292V46.619"/></g></svg>