<svg xmlns="http://www.w3.org/2000/svg" width="217.008" height="70.004" viewBox="0 0 217.008 70.004">
  <g id="Grupo_114" data-name="Grupo 114" transform="translate(-106 -7235)">
    <g id="Grupo_24" data-name="Grupo 24" transform="translate(58.953 7181.553)">
      <g id="Grupo_13" data-name="Grupo 13">
        <g id="Grupo_12" data-name="Grupo 12">
          <path id="Trazado_4" data-name="Trazado 4" d="M81,96.475a1.864,1.864,0,0,1-.145-2.129l18.868-31.32-7.5-9.369a.562.562,0,0,0-.919.061L66.828,94.346a1.864,1.864,0,0,0,.144,2.129L87.05,121.429a5.392,5.392,0,0,0,8.835-.6l2.006-3.352Z" fill="#fff"/>
          <g id="Grupo_11" data-name="Grupo 11">
            <path id="Trazado_5" data-name="Trazado 5" d="M61.189,96.475a1.862,1.862,0,0,1-.144-2.129L80.037,62.817l-7.33-9.16a.562.562,0,0,0-.919.061L47.314,94.346a1.862,1.862,0,0,0,.145,2.129l20.077,24.954a5.392,5.392,0,0,0,8.835-.6l1.882-3.144Z" fill="#fff"/>
          </g>
        </g>
        <path id="Trazado_6" data-name="Trazado 6" d="M136.079,83.715l-1.62-2.024-.83-1.037-3.413-4.267-.005,0-4.287-5.358-.011-.017-3.061-3.823,0,0-4.266-5.332h0l-1.573-1.966-.976-1.219h0l-4.007-5.008a.561.561,0,0,0-.919.062L100.052,72.072l-.74,1.23L86.635,94.346a1.864,1.864,0,0,0,.143,2.13l20.078,24.953a5.392,5.392,0,0,0,8.836-.6l20.573-34.379A2.4,2.4,0,0,0,136.079,83.715Z" fill="#fff"/>
      </g>
      <text id="PRO." transform="translate(150.055 99.261)" fill="#fff" font-size="46.503" font-family="Helvetica-Bold, Helvetica" font-weight="700"><tspan x="0" y="0">PRO.</tspan></text>
    </g>
  </g>
</svg>
