<svg xmlns="http://www.w3.org/2000/svg" xmlns:xlink="http://www.w3.org/1999/xlink" width="478.847" height="473.143" viewBox="0 0 478.847 473.143"><defs><filter id="a" x="49.101" y="43.5" width="293.43" height="386.143" filterUnits="userSpaceOnUse"><feOffset input="SourceAlpha"/><feGaussianBlur stdDeviation="35" result="b"/><feFlood flood-color="#fff" flood-opacity="0.431"/><feComposite operator="in" in2="b"/><feComposite in="SourceGraphic"/></filter><filter id="c" x="0" y="43.5" width="293.009" height="386.143" filterUnits="userSpaceOnUse"><feOffset input="SourceAlpha"/><feGaussianBlur stdDeviation="35" result="d"/><feFlood flood-color="#fff" flood-opacity="0.431"/><feComposite operator="in" in2="d"/><feComposite in="SourceGraphic"/></filter><filter id="e" x="55.437" y="0" width="423.41" height="473.143" filterUnits="userSpaceOnUse"><feOffset input="SourceAlpha"/><feGaussianBlur stdDeviation="49.5" result="f"/><feFlood flood-color="#fff" flood-opacity="0.431"/><feComposite operator="in" in2="f"/><feComposite in="SourceGraphic"/></filter></defs><g transform="translate(105 148.5)" opacity="0.957"><g transform="matrix(1, 0, 0, 1, -105, -148.5)" filter="url(#a)"><path d="M102.88,161.714a4.689,4.689,0,0,1-.365-5.357L149.99,77.55,131.126,53.976a1.413,1.413,0,0,0-2.312.153L67.233,156.357a4.689,4.689,0,0,0,.362,5.357l50.52,62.789a13.567,13.567,0,0,0,22.23-1.512l5.047-8.434Z" transform="translate(87.54 95.05)" fill="#fff"/></g><g transform="matrix(1, 0, 0, 1, -105, -148.5)" filter="url(#c)"><path d="M82.631,161.714a4.685,4.685,0,0,1-.362-5.357l47.787-79.333L111.612,53.976a1.413,1.413,0,0,0-2.312.153L47.719,156.357a4.685,4.685,0,0,0,.365,5.357L98.6,224.5a13.567,13.567,0,0,0,22.23-1.512l4.735-7.911Z" transform="translate(57.95 95.05)" fill="#fff"/></g><g transform="matrix(1, 0, 0, 1, -105, -148.5)" filter="url(#e)"><path d="M211.451,129.607l-4.076-5.093-2.088-2.609L196.7,111.169l-.013-.01L185.9,97.677l-.028-.043-7.7-9.619-.008-.008L167.428,74.591h0l-3.958-4.947-2.456-3.067h0l-10.082-12.6a1.412,1.412,0,0,0-2.312.156L120.8,100.311l-1.862,3.095-31.9,52.951a4.689,4.689,0,0,0,.36,5.359l50.52,62.786a13.568,13.568,0,0,0,22.233-1.515l51.765-86.5A6.034,6.034,0,0,0,211.451,129.607Z" transform="translate(117.57 95.05)" fill="#fff"/></g></g></svg>