<svg id="Capa_2" data-name="Capa 2" xmlns="http://www.w3.org/2000/svg" viewBox="0 0 32.966 25.768"><defs><style>.cls-1{fill:#fff;}</style></defs><title>logo</title><path class="cls-1" d="M12.5,15.839a.686.686,0,0,1-.053-.784L19.388,3.526,16.628.078A.206.206,0,0,0,16.29.1L7.281,15.055a.688.688,0,0,0,.053.784l7.391,9.185a1.985,1.985,0,0,0,3.252-.221l.738-1.234Z"/><path class="cls-1" d="M5.206,15.839a.686.686,0,0,1-.054-.784L12.144,3.449,9.445.078A.206.206,0,0,0,9.107.1L.1,15.055a.686.686,0,0,0,.054.784l7.39,9.185a1.985,1.985,0,0,0,3.252-.221l.693-1.158Z"/><path class="cls-1" d="M32.772,11.141l-.6-.745-.306-.381L30.614,8.444h0L29.034,6.47l0-.006L27.9,5.057h0l-1.57-1.963h0l-.579-.723-.359-.449h0L23.919.077A.207.207,0,0,0,23.581.1l-4.07,6.756-.273.452-4.666,7.747a.684.684,0,0,0,.053.784l7.39,9.185a1.985,1.985,0,0,0,3.253-.222l7.573-12.654A.886.886,0,0,0,32.772,11.141Z"/></svg>