<svg xmlns="http://www.w3.org/2000/svg" width="22.967" height="18.886" viewBox="0 0 22.967 18.886">
  <path id="Trazado_247" data-name="Trazado 247" d="M1028.273,10226.488a9.429,9.429,0,0,1-2.32.662c.374-.062.925-.74,1.146-1.014a4.281,4.281,0,0,0,.772-1.406l0-.121-.122.011a11.884,11.884,0,0,1-2.756,1.054.184.184,0,0,1-.19-.05,2.275,2.275,0,0,0-.241-.247,4.807,4.807,0,0,0-3.463-1.123l.017-.006h-.1l.034.01a4.806,4.806,0,0,0-1.981.606,4.9,4.9,0,0,0-2.388,5.048c.015.109,0,.125-.095.109a14.709,14.709,0,0,1-9.469-4.818c-.111-.127-.171-.127-.261.01a4.8,4.8,0,0,0,.818,5.674c.186.175.376.352.582.511a4.838,4.838,0,0,1-1.827-.511c-.11-.072-.166-.031-.176.1a2.986,2.986,0,0,0,.03.541,4.855,4.855,0,0,0,2.993,3.871,2.83,2.83,0,0,0,.607.186,5.467,5.467,0,0,1-1.792.057c-.131-.026-.181.039-.131.164a5.041,5.041,0,0,0,3.766,3.154c.17.029.341.029.512.07l-.03.03c-.424.644-1.889,1.124-2.572,1.362a9.226,9.226,0,0,1-3.906.5c-.21-.03-.254-.029-.311,0s-.008.086.061.14c.266.177.537.332.813.482a12.861,12.861,0,0,0,2.611,1.045,13.521,13.521,0,0,0,14.477-4.457,14.65,14.65,0,0,0,2.759-9.034c0-.148.175-.23.28-.31a9.148,9.148,0,0,0,1.829-1.91.562.562,0,0,0,.113-.366v-.02c0-.062.007-.043-.086,0Z" transform="translate(-1005.392 -10224.241)" fill="#5c64f2"/>
</svg>
